<?xml version="1.0" encoding="utf-8"?>
<!-- Generator: Adobe Illustrator 24.3.0, SVG Export Plug-In . SVG Version: 6.00 Build 0)  -->
<svg version="1.0"
	 id="Capa_1" sodipodi:docname="53a5222433d03039f32159cb1ec4d4d8.svg" xmlns:inkscape="http://www.inkscape.org/namespaces/inkscape" xmlns:sodipodi="http://sodipodi.sourceforge.net/DTD/sodipodi-0.dtd" xmlns:svg="http://www.w3.org/2000/svg"
	 xmlns="http://www.w3.org/2000/svg" xmlns:xlink="http://www.w3.org/1999/xlink" x="0px" y="0px" viewBox="0 0 172.92 119.94"
	 style="enable-background:new 0 0 172.92 119.94;" xml:space="preserve">
<style type="text/css">
	.st0{fill:#D60812;}
</style>
<sodipodi:namedview  bordercolor="#666666" borderopacity="1.0" id="namedview21" inkscape:pagecheckerboard="0" inkscape:pageopacity="0.0" inkscape:pageshadow="2" pagecolor="#ffffff">
	</sodipodi:namedview>
<g id="g18" transform="translate(-0.28227067,-0.35747698)">
	<path id="path4" class="st0" d="M127.9,46.1h-19.6c-0.9,0-1.6,0.7-1.6,1.6v2.4c0,0.9,0.7,1.6,1.6,1.6h19.6c0.9,0,1.6-0.7,1.6-1.6
		v-2.5C129.5,46.8,128.8,46.1,127.9,46.1z"/>
	<path id="path6" class="st0" d="M58.3,45.4c-8.2,0-14.9,6.7-14.9,14.9s6.7,14.9,14.9,14.9s14.9-6.7,14.9-14.9
		C73.2,52.1,66.5,45.4,58.3,45.4z M58.3,69.7c-5.2,0-9.4-4.2-9.4-9.4s4.2-9.3,9.4-9.3s9.4,4.2,9.4,9.4S63.4,69.7,58.3,69.7z"/>
	<path id="path8" class="st0" d="M100.1,49.2c-2-2-4.6-3.1-7.4-3.1H79.6c-0.9,0-1.6,0.7-1.6,1.6v25.5c0,0.9,0.7,1.6,1.6,1.6H82
		c0.9,0,1.6-0.7,1.6-1.6v-6c0-0.2,0.2-0.4,0.4-0.4h8.5c5.7,0,10.4-4.6,10.5-10.2C103.2,53.8,102.1,51.2,100.1,49.2 M96.2,59.7
		c-0.9,0.9-2.1,1.5-3.4,1.5H84c-0.2,0-0.4-0.2-0.4-0.4v-8.7c0-0.2,0.2-0.4,0.4-0.4h8.6c2.6,0,4.8,2.1,4.9,4.6
		C97.6,57.5,97.1,58.8,96.2,59.7"/>
	<path id="path10" class="st0" d="M127.7,69.1h-19.6c-0.9,0-1.6,0.7-1.6,1.6v2.4c0,0.9,0.7,1.6,1.6,1.6h19.6c0.9,0,1.6-0.7,1.6-1.6
		v-2.4C129.3,69.8,128.5,69.1,127.7,69.1z"/>
	<path id="path12" class="st0" d="M38.2,67.8c-0.6-0.6-1.5-0.6-2.1-0.1c-1.8,1.4-4,2.1-6.3,2c-4.7-0.3-8.5-4-8.8-8.7
		c-0.3-2.6,0.6-5.1,2.4-7c1.8-1.9,4.3-3,6.9-3c2,0,4,0.6,5.6,1.9c0.8,0.6,2,0.6,2.7-0.2l1.4-1.4c0.3-0.3,0.5-0.7,0.5-1.2
		c0-0.4-0.2-0.8-0.5-1.1c-3-2.5-6.7-3.8-10.6-3.5c-3.7,0.2-7.1,1.8-9.7,4.4c-2.6,2.6-4.2,6.1-4.4,9.8c-0.2,4.1,1.3,8,4.1,11
		c2.9,3,6.7,4.6,10.8,4.6c3.5,0,6.9-1.2,9.6-3.5c0.3-0.3,0.5-0.7,0.6-1.1c0-0.4-0.1-0.9-0.5-1.2L38.2,67.8z"/>
	<path id="path14" class="st0" d="M155.8,67.8c-0.6-0.6-1.5-0.6-2.1-0.1c-1.8,1.4-4,2.1-6.3,2c-4.7-0.3-8.5-4-8.8-8.7
		c-0.2-2.6,0.7-5.1,2.5-7.1c1.8-1.9,4.3-3,6.9-3c2,0,4,0.6,5.6,1.9c0.8,0.6,2,0.6,2.7-0.2l1.4-1.4c0.3-0.3,0.5-0.7,0.5-1.2
		c0-0.4-0.2-0.8-0.5-1.1c-3-2.5-6.7-3.8-10.6-3.5c-3.7,0.2-7.1,1.8-9.7,4.4c-2.6,2.6-4.1,6.1-4.3,9.8c-0.2,4.1,1.3,8,4.1,11
		c2.9,3,6.7,4.6,10.8,4.6c3.5,0,6.9-1.2,9.6-3.5c0.3-0.3,0.5-0.7,0.6-1.1c0-0.4-0.1-0.9-0.5-1.2L155.8,67.8z"/>
	<path id="path16" class="st0" d="M114.9,57.6h11.9c0.9,0,1.6,0.7,1.6,1.6v2.4c0,0.9-0.7,1.6-1.6,1.6h-11.9c-0.9,0-1.6-0.7-1.6-1.6
		v-2.4C113.3,58.3,114,57.6,114.9,57.6z"/>
</g>
</svg>
